<mxfile host="app.diagrams.net" agent="Mozilla/5.0 (Windows NT 10.0; Win64; x64) AppleWebKit/537.36 (KHTML, like Gecko) Chrome/129.0.0.0 Safari/537.36" version="27.1.1">
  <diagram id="gwUhwwIQdEspnQJv_WbK" name="Pagina-1">
    <mxGraphModel dx="1699" dy="1652" grid="1" gridSize="10" guides="1" tooltips="1" connect="1" arrows="1" fold="1" page="1" pageScale="1" pageWidth="827" pageHeight="1169" math="0" shadow="0">
      <root>
        <mxCell id="0" />
        <mxCell id="1" parent="0" />
        <mxCell id="FgpJdpsvdST_ZWDqFQEa-1" value="Utente" style="shape=umlActor;verticalLabelPosition=bottom;verticalAlign=top;html=1;outlineConnect=0;" parent="1" vertex="1">
          <mxGeometry x="-351.25" y="-150" width="30" height="60" as="geometry" />
        </mxCell>
        <mxCell id="FgpJdpsvdST_ZWDqFQEa-4" value="" style="endArrow=none;dashed=1;html=1;rounded=0;" parent="1" source="WTWF-vKirUXl5wXtsg50-43" target="FgpJdpsvdST_ZWDqFQEa-1" edge="1">
          <mxGeometry width="50" height="50" relative="1" as="geometry">
            <mxPoint x="-336.25" y="611" as="sourcePoint" />
            <mxPoint x="-321.25" y="191" as="targetPoint" />
            <Array as="points" />
          </mxGeometry>
        </mxCell>
        <mxCell id="FgpJdpsvdST_ZWDqFQEa-5" value="controller&amp;nbsp;&lt;span style=&quot;background-color: transparent; color: light-dark(rgb(0, 0, 0), rgb(255, 255, 255));&quot;&gt;get&amp;nbsp; offerta di lavoro&lt;/span&gt;" style="rounded=0;whiteSpace=wrap;html=1;" parent="1" vertex="1">
          <mxGeometry x="260" y="-140" width="120" height="60" as="geometry" />
        </mxCell>
        <mxCell id="FgpJdpsvdST_ZWDqFQEa-6" value="" style="endArrow=none;dashed=1;html=1;rounded=0;" parent="1" source="WTWF-vKirUXl5wXtsg50-3" target="FgpJdpsvdST_ZWDqFQEa-5" edge="1">
          <mxGeometry width="50" height="50" relative="1" as="geometry">
            <mxPoint x="320" y="630" as="sourcePoint" />
            <mxPoint x="319.5" y="80" as="targetPoint" />
          </mxGeometry>
        </mxCell>
        <mxCell id="FgpJdpsvdST_ZWDqFQEa-7" value="model offerte di lavoro" style="rounded=0;whiteSpace=wrap;html=1;" parent="1" vertex="1">
          <mxGeometry x="540" y="-140" width="120" height="60" as="geometry" />
        </mxCell>
        <mxCell id="FgpJdpsvdST_ZWDqFQEa-10" value="" style="endArrow=none;dashed=1;html=1;rounded=0;entryX=0.5;entryY=1;entryDx=0;entryDy=0;" parent="1" source="WTWF-vKirUXl5wXtsg50-8" target="FgpJdpsvdST_ZWDqFQEa-7" edge="1">
          <mxGeometry width="50" height="50" relative="1" as="geometry">
            <mxPoint x="599.5" y="320" as="sourcePoint" />
            <mxPoint x="599.5" y="70" as="targetPoint" />
          </mxGeometry>
        </mxCell>
        <mxCell id="WTWF-vKirUXl5wXtsg50-1" value="" style="endArrow=classic;html=1;rounded=0;" parent="1" edge="1">
          <mxGeometry width="50" height="50" relative="1" as="geometry">
            <mxPoint x="50" y="-27.5" as="sourcePoint" />
            <mxPoint x="310" y="-27.5" as="targetPoint" />
          </mxGeometry>
        </mxCell>
        <mxCell id="WTWF-vKirUXl5wXtsg50-2" value="Richiesta GET /offerta?id=XYZ" style="text;html=1;align=center;verticalAlign=middle;whiteSpace=wrap;rounded=0;" parent="1" vertex="1">
          <mxGeometry x="110" y="-58.5" width="140" height="30" as="geometry" />
        </mxCell>
        <mxCell id="WTWF-vKirUXl5wXtsg50-4" value="" style="endArrow=classic;html=1;rounded=0;" parent="1" edge="1">
          <mxGeometry width="50" height="50" relative="1" as="geometry">
            <mxPoint x="350" y="150" as="sourcePoint" />
            <mxPoint x="550" y="150" as="targetPoint" />
          </mxGeometry>
        </mxCell>
        <mxCell id="WTWF-vKirUXl5wXtsg50-5" value="new Offerte()" style="text;html=1;align=center;verticalAlign=middle;whiteSpace=wrap;rounded=0;" parent="1" vertex="1">
          <mxGeometry x="380" y="120" width="140" height="30" as="geometry" />
        </mxCell>
        <mxCell id="WTWF-vKirUXl5wXtsg50-6" value="" style="endArrow=classic;html=1;rounded=0;" parent="1" edge="1">
          <mxGeometry width="50" height="50" relative="1" as="geometry">
            <mxPoint x="550" y="171" as="sourcePoint" />
            <mxPoint x="350" y="171" as="targetPoint" />
          </mxGeometry>
        </mxCell>
        <mxCell id="WTWF-vKirUXl5wXtsg50-7" value="restituisce 0" style="text;html=1;align=center;verticalAlign=middle;whiteSpace=wrap;rounded=0;" parent="1" vertex="1">
          <mxGeometry x="380" y="176" width="140" height="30" as="geometry" />
        </mxCell>
        <mxCell id="WTWF-vKirUXl5wXtsg50-9" value="" style="endArrow=none;dashed=1;html=1;rounded=0;" parent="1" target="WTWF-vKirUXl5wXtsg50-8" edge="1">
          <mxGeometry width="50" height="50" relative="1" as="geometry">
            <mxPoint x="600" y="630" as="sourcePoint" />
            <mxPoint x="599.5" y="70" as="targetPoint" />
          </mxGeometry>
        </mxCell>
        <mxCell id="WTWF-vKirUXl5wXtsg50-8" value="" style="rounded=0;whiteSpace=wrap;html=1;rotation=90;" parent="1" vertex="1">
          <mxGeometry x="572.5" y="156" width="55" height="20" as="geometry" />
        </mxCell>
        <mxCell id="WTWF-vKirUXl5wXtsg50-12" value="" style="endArrow=classic;html=1;rounded=0;" parent="1" edge="1">
          <mxGeometry width="50" height="50" relative="1" as="geometry">
            <mxPoint x="350" y="241" as="sourcePoint" />
            <mxPoint x="550" y="241" as="targetPoint" />
          </mxGeometry>
        </mxCell>
        <mxCell id="WTWF-vKirUXl5wXtsg50-13" value="connectToDatabase()" style="text;html=1;align=center;verticalAlign=middle;whiteSpace=wrap;rounded=0;" parent="1" vertex="1">
          <mxGeometry x="380" y="211" width="140" height="30" as="geometry" />
        </mxCell>
        <mxCell id="WTWF-vKirUXl5wXtsg50-14" value="" style="endArrow=classic;html=1;rounded=0;" parent="1" edge="1">
          <mxGeometry width="50" height="50" relative="1" as="geometry">
            <mxPoint x="550" y="262" as="sourcePoint" />
            <mxPoint x="350" y="262" as="targetPoint" />
          </mxGeometry>
        </mxCell>
        <mxCell id="WTWF-vKirUXl5wXtsg50-15" value="restituisce 0" style="text;html=1;align=center;verticalAlign=middle;whiteSpace=wrap;rounded=0;" parent="1" vertex="1">
          <mxGeometry x="380" y="267" width="140" height="30" as="geometry" />
        </mxCell>
        <mxCell id="WTWF-vKirUXl5wXtsg50-16" value="" style="rounded=0;whiteSpace=wrap;html=1;rotation=90;" parent="1" vertex="1">
          <mxGeometry x="572.5" y="241" width="55" height="20" as="geometry" />
        </mxCell>
        <mxCell id="WTWF-vKirUXl5wXtsg50-17" value="" style="endArrow=classic;html=1;rounded=0;" parent="1" edge="1">
          <mxGeometry width="50" height="50" relative="1" as="geometry">
            <mxPoint x="350" y="327" as="sourcePoint" />
            <mxPoint x="550" y="327" as="targetPoint" />
          </mxGeometry>
        </mxCell>
        <mxCell id="WTWF-vKirUXl5wXtsg50-18" value="getOffertaConRequisitiById(offertaId)" style="text;html=1;align=center;verticalAlign=middle;whiteSpace=wrap;rounded=0;" parent="1" vertex="1">
          <mxGeometry x="380" y="297" width="140" height="30" as="geometry" />
        </mxCell>
        <mxCell id="WTWF-vKirUXl5wXtsg50-19" value="" style="endArrow=classic;html=1;rounded=0;" parent="1" edge="1">
          <mxGeometry width="50" height="50" relative="1" as="geometry">
            <mxPoint x="550" y="348" as="sourcePoint" />
            <mxPoint x="350" y="348" as="targetPoint" />
          </mxGeometry>
        </mxCell>
        <mxCell id="WTWF-vKirUXl5wXtsg50-20" value="Array associativo con i dati dell&#39;offerta" style="text;html=1;align=center;verticalAlign=middle;whiteSpace=wrap;rounded=0;" parent="1" vertex="1">
          <mxGeometry x="380" y="353" width="140" height="30" as="geometry" />
        </mxCell>
        <mxCell id="WTWF-vKirUXl5wXtsg50-21" value="" style="rounded=0;whiteSpace=wrap;html=1;rotation=90;" parent="1" vertex="1">
          <mxGeometry x="572.5" y="327" width="55" height="20" as="geometry" />
        </mxCell>
        <mxCell id="WTWF-vKirUXl5wXtsg50-36" value="view offerta di lavoro" style="rounded=0;whiteSpace=wrap;html=1;" parent="1" vertex="1">
          <mxGeometry x="-30" y="-140" width="120" height="60" as="geometry" />
        </mxCell>
        <mxCell id="WTWF-vKirUXl5wXtsg50-37" value="" style="endArrow=none;dashed=1;html=1;rounded=0;entryX=0.5;entryY=1;entryDx=0;entryDy=0;" parent="1" target="WTWF-vKirUXl5wXtsg50-36" edge="1">
          <mxGeometry width="50" height="50" relative="1" as="geometry">
            <mxPoint x="30" y="620" as="sourcePoint" />
            <mxPoint x="29.5" y="80" as="targetPoint" />
          </mxGeometry>
        </mxCell>
        <mxCell id="WTWF-vKirUXl5wXtsg50-40" value="" style="endArrow=classic;html=1;rounded=0;" parent="1" edge="1">
          <mxGeometry width="50" height="50" relative="1" as="geometry">
            <mxPoint x="276.88" y="383" as="sourcePoint" />
            <mxPoint x="76.88" y="383" as="targetPoint" />
          </mxGeometry>
        </mxCell>
        <mxCell id="WTWF-vKirUXl5wXtsg50-42" value="Risposta 200 OK con dati dell&#39;offerta in formato json" style="text;html=1;align=center;verticalAlign=middle;whiteSpace=wrap;rounded=0;" parent="1" vertex="1">
          <mxGeometry x="113.13" y="389" width="130" height="30" as="geometry" />
        </mxCell>
        <mxCell id="WTWF-vKirUXl5wXtsg50-44" value="" style="endArrow=none;dashed=1;html=1;rounded=0;" parent="1" target="WTWF-vKirUXl5wXtsg50-43" edge="1">
          <mxGeometry width="50" height="50" relative="1" as="geometry">
            <mxPoint x="-336.25" y="611" as="sourcePoint" />
            <mxPoint x="-336.25" y="81" as="targetPoint" />
            <Array as="points">
              <mxPoint x="-336.25" y="151" />
            </Array>
          </mxGeometry>
        </mxCell>
        <mxCell id="WTWF-vKirUXl5wXtsg50-43" value="" style="rounded=0;whiteSpace=wrap;html=1;rotation=90;" parent="1" vertex="1">
          <mxGeometry x="-571.87" y="186.63" width="471.25" height="20" as="geometry" />
        </mxCell>
        <mxCell id="WTWF-vKirUXl5wXtsg50-48" value="" style="endArrow=classic;html=1;rounded=0;" parent="1" edge="1">
          <mxGeometry width="50" height="50" relative="1" as="geometry">
            <mxPoint x="-300" y="-27.5" as="sourcePoint" />
            <mxPoint x="10" y="-27.5" as="targetPoint" />
          </mxGeometry>
        </mxCell>
        <mxCell id="WTWF-vKirUXl5wXtsg50-49" value="Selezione offerta di lavoro" style="text;html=1;align=center;verticalAlign=middle;whiteSpace=wrap;rounded=0;" parent="1" vertex="1">
          <mxGeometry x="-240" y="-58.5" width="140" height="30" as="geometry" />
        </mxCell>
        <mxCell id="WTWF-vKirUXl5wXtsg50-50" value="" style="endArrow=classic;html=1;rounded=0;" parent="1" edge="1">
          <mxGeometry width="50" height="50" relative="1" as="geometry">
            <mxPoint x="10" y="383" as="sourcePoint" />
            <mxPoint x="-290" y="383" as="targetPoint" />
          </mxGeometry>
        </mxCell>
        <mxCell id="WTWF-vKirUXl5wXtsg50-51" value="risposta http con i dati attuali del&#39;offerta" style="text;html=1;align=center;verticalAlign=middle;whiteSpace=wrap;rounded=0;" parent="1" vertex="1">
          <mxGeometry x="-220" y="388" width="130" height="30" as="geometry" />
        </mxCell>
        <mxCell id="WTWF-vKirUXl5wXtsg50-57" value="" style="rounded=0;whiteSpace=wrap;html=1;rotation=90;" parent="1" vertex="1">
          <mxGeometry x="-217.5" y="177.5" width="495" height="20" as="geometry" />
        </mxCell>
        <mxCell id="WTWF-vKirUXl5wXtsg50-58" value="" style="endArrow=classic;html=1;rounded=0;" parent="1" edge="1">
          <mxGeometry width="50" height="50" relative="1" as="geometry">
            <mxPoint x="340" y="-28.5" as="sourcePoint" />
            <mxPoint x="340" y="21.5" as="targetPoint" />
            <Array as="points">
              <mxPoint x="450" y="-28.5" />
              <mxPoint x="450" y="-8.5" />
              <mxPoint x="450" y="21.5" />
            </Array>
          </mxGeometry>
        </mxCell>
        <mxCell id="WTWF-vKirUXl5wXtsg50-59" value="verifica sessione" style="text;html=1;align=center;verticalAlign=middle;whiteSpace=wrap;rounded=0;" parent="1" vertex="1">
          <mxGeometry x="450" y="-18.5" width="80" height="30" as="geometry" />
        </mxCell>
        <mxCell id="WTWF-vKirUXl5wXtsg50-60" value="" style="endArrow=none;dashed=1;html=1;rounded=0;" parent="1" target="WTWF-vKirUXl5wXtsg50-3" edge="1">
          <mxGeometry width="50" height="50" relative="1" as="geometry">
            <mxPoint x="320" y="630" as="sourcePoint" />
            <mxPoint x="320" y="-80" as="targetPoint" />
          </mxGeometry>
        </mxCell>
        <mxCell id="WTWF-vKirUXl5wXtsg50-3" value="" style="rounded=0;whiteSpace=wrap;html=1;rotation=90;" parent="1" vertex="1">
          <mxGeometry x="73.13" y="180" width="493.75" height="20" as="geometry" />
        </mxCell>
        <mxCell id="WTWF-vKirUXl5wXtsg50-62" value="" style="endArrow=classic;html=1;rounded=0;" parent="1" edge="1">
          <mxGeometry width="50" height="50" relative="1" as="geometry">
            <mxPoint x="340" y="39" as="sourcePoint" />
            <mxPoint x="340" y="89" as="targetPoint" />
            <Array as="points">
              <mxPoint x="450" y="39" />
              <mxPoint x="450" y="59" />
              <mxPoint x="450" y="89" />
            </Array>
          </mxGeometry>
        </mxCell>
        <mxCell id="WTWF-vKirUXl5wXtsg50-63" value="verifica parametro id" style="text;html=1;align=center;verticalAlign=middle;whiteSpace=wrap;rounded=0;" parent="1" vertex="1">
          <mxGeometry x="450" y="49" width="80" height="30" as="geometry" />
        </mxCell>
        <mxCell id="qCOmb5VgwpMJT7lQ-KLR-5" value="DBMS" style="rounded=0;whiteSpace=wrap;html=1;" vertex="1" parent="1">
          <mxGeometry x="818" y="-138" width="120" height="60" as="geometry" />
        </mxCell>
        <mxCell id="qCOmb5VgwpMJT7lQ-KLR-6" value="" style="endArrow=none;dashed=1;html=1;rounded=0;entryX=0.5;entryY=1;entryDx=0;entryDy=0;" edge="1" parent="1" target="qCOmb5VgwpMJT7lQ-KLR-5">
          <mxGeometry width="50" height="50" relative="1" as="geometry">
            <mxPoint x="878" y="212" as="sourcePoint" />
            <mxPoint x="877.5" y="72" as="targetPoint" />
          </mxGeometry>
        </mxCell>
        <mxCell id="qCOmb5VgwpMJT7lQ-KLR-7" value="" style="endArrow=none;dashed=1;html=1;rounded=0;" edge="1" parent="1" source="qCOmb5VgwpMJT7lQ-KLR-12">
          <mxGeometry width="50" height="50" relative="1" as="geometry">
            <mxPoint x="878" y="632" as="sourcePoint" />
            <mxPoint x="878" y="195.5" as="targetPoint" />
          </mxGeometry>
        </mxCell>
        <mxCell id="qCOmb5VgwpMJT7lQ-KLR-8" value="" style="rounded=0;whiteSpace=wrap;html=1;rotation=90;" vertex="1" parent="1">
          <mxGeometry x="850.5" y="243" width="55" height="20" as="geometry" />
        </mxCell>
        <mxCell id="qCOmb5VgwpMJT7lQ-KLR-9" value="new mysqli(host, user, pass, db, port)" style="text;html=1;align=center;verticalAlign=middle;whiteSpace=wrap;rounded=0;" vertex="1" parent="1">
          <mxGeometry x="685" y="210" width="140" height="30" as="geometry" />
        </mxCell>
        <mxCell id="qCOmb5VgwpMJT7lQ-KLR-10" value="restituisce object" style="text;html=1;align=center;verticalAlign=middle;whiteSpace=wrap;rounded=0;" vertex="1" parent="1">
          <mxGeometry x="685" y="266" width="140" height="30" as="geometry" />
        </mxCell>
        <mxCell id="qCOmb5VgwpMJT7lQ-KLR-11" value="" style="endArrow=none;dashed=1;html=1;rounded=0;" edge="1" parent="1" target="qCOmb5VgwpMJT7lQ-KLR-12">
          <mxGeometry width="50" height="50" relative="1" as="geometry">
            <mxPoint x="880" y="640" as="sourcePoint" />
            <mxPoint x="878" y="-187" as="targetPoint" />
          </mxGeometry>
        </mxCell>
        <mxCell id="qCOmb5VgwpMJT7lQ-KLR-12" value="" style="rounded=0;whiteSpace=wrap;html=1;rotation=90;" vertex="1" parent="1">
          <mxGeometry x="850.5" y="329.5" width="55" height="20" as="geometry" />
        </mxCell>
        <mxCell id="qCOmb5VgwpMJT7lQ-KLR-17" value="esegue la query" style="text;html=1;align=center;verticalAlign=middle;whiteSpace=wrap;rounded=0;" vertex="1" parent="1">
          <mxGeometry x="685.5" y="297" width="140" height="30" as="geometry" />
        </mxCell>
        <mxCell id="qCOmb5VgwpMJT7lQ-KLR-18" value="Successo" style="text;html=1;align=center;verticalAlign=middle;whiteSpace=wrap;rounded=0;" vertex="1" parent="1">
          <mxGeometry x="685.5" y="352" width="140" height="30" as="geometry" />
        </mxCell>
        <mxCell id="qCOmb5VgwpMJT7lQ-KLR-19" value="" style="endArrow=classic;html=1;rounded=0;" edge="1" parent="1">
          <mxGeometry width="50" height="50" relative="1" as="geometry">
            <mxPoint x="650.5" y="250.5" as="sourcePoint" />
            <mxPoint x="850.5" y="250.5" as="targetPoint" />
            <Array as="points">
              <mxPoint x="740.5" y="250.5" />
            </Array>
          </mxGeometry>
        </mxCell>
        <mxCell id="qCOmb5VgwpMJT7lQ-KLR-20" value="" style="endArrow=classic;html=1;rounded=0;" edge="1" parent="1">
          <mxGeometry width="50" height="50" relative="1" as="geometry">
            <mxPoint x="850" y="267" as="sourcePoint" />
            <mxPoint x="650" y="267" as="targetPoint" />
          </mxGeometry>
        </mxCell>
        <mxCell id="qCOmb5VgwpMJT7lQ-KLR-21" value="" style="endArrow=classic;html=1;rounded=0;" edge="1" parent="1">
          <mxGeometry width="50" height="50" relative="1" as="geometry">
            <mxPoint x="655" y="327.5" as="sourcePoint" />
            <mxPoint x="855" y="327.5" as="targetPoint" />
          </mxGeometry>
        </mxCell>
        <mxCell id="qCOmb5VgwpMJT7lQ-KLR-22" value="" style="endArrow=classic;html=1;rounded=0;" edge="1" parent="1">
          <mxGeometry width="50" height="50" relative="1" as="geometry">
            <mxPoint x="855" y="348.5" as="sourcePoint" />
            <mxPoint x="655" y="348.5" as="targetPoint" />
          </mxGeometry>
        </mxCell>
      </root>
    </mxGraphModel>
  </diagram>
</mxfile>
